<svg width="38" height="38" viewBox="0 0 38 38" fill="none" xmlns="http://www.w3.org/2000/svg">
<circle cx="19" cy="19" r="19" fill="white"/>
<path d="M19.1937 33.249C16.8197 33.249 14.4469 33.2696 12.0729 33.2418C10.3766 33.2213 8.91527 32.6259 7.88287 31.1089C7.35583 30.3348 7.07634 29.4495 7.04896 28.5195C6.96682 25.7417 7.22692 23.017 8.4909 20.5086C9.49137 18.5242 11.0394 17.4361 13.1943 17.3491C13.7305 17.3274 14.1503 17.5653 14.5598 17.8588C15.5523 18.5726 16.5688 19.2465 17.7574 19.5182C19.4914 19.9144 21.1056 19.5134 22.6229 18.5919C22.9183 18.4119 23.2218 18.2332 23.4819 18.0025C24.4173 17.1752 25.4531 17.2006 26.5449 17.5303C28.2366 18.0424 29.3489 19.2416 30.0687 20.8818C31.2209 23.5026 31.5574 26.2864 31.2346 29.1186C30.9585 31.5377 28.9576 33.2297 26.5414 33.2635C24.0922 33.2974 21.6418 33.2708 19.1925 33.2708C19.1925 33.2635 19.1925 33.2551 19.1925 33.2478L19.1937 33.249Z" fill="#0D99FF"/>
<path d="M12.0613 9.71638C11.8885 5.99351 14.9391 2.08031 19.2286 2.17117C22.8359 2.2473 25.9486 5.69636 25.9475 9.74831C25.9475 13.8555 22.8461 17.2383 19.1744 17.3144C15.0193 17.4003 11.866 13.5608 12.0613 9.71638Z" fill="#FBBC1C"/>
</svg>
