<svg width="287" height="75" viewBox="0 0 287 75" fill="none" xmlns="http://www.w3.org/2000/svg">
<path d="M67.0011 19.5867C67.021 9.3897 72.659 1.94755 81.989 0.405672C88.6599 -0.697629 94.0779 2.80415 98.9628 6.78563C101.322 8.71127 102.388 8.5468 104.514 6.53208C110.612 0.741459 117.803 -1.74611 125.933 1.32395C135.043 4.76406 139.248 15.7148 135.803 26.1517C133.49 33.1552 128.979 38.6991 123.98 43.688C117.143 50.5202 110.305 57.3319 103.881 64.5822C102.475 66.1652 101.615 66.4324 100.069 64.6301C92.152 55.3994 82.842 47.5461 75.0981 38.1509C70.6931 32.7989 66.9277 27.0494 67.0011 19.5935V19.5867Z" fill="#FAA91C"/>
<path d="M115.917 32.9952C115.917 38.7242 115.917 38.8244 109.965 38.8512C107.803 38.8579 107.164 39.5598 107.157 41.7257C107.137 47.6352 107.038 47.6352 101.113 47.6352C100.783 47.6352 100.454 47.6352 100.124 47.6352C97.1232 47.6352 95.6204 46.1355 95.616 43.1362C95.6116 40.3241 94.1616 38.9136 91.2659 38.9046C88.3702 38.8957 86.9487 37.4228 87.0014 34.4859C87.0014 34.3723 87.0014 34.2653 87.0014 34.1517C87.0014 27.6138 86.9948 27.5202 93.3421 27.206C95.3787 27.1057 95.5896 26.1431 95.6358 24.4786C95.8072 18.315 95.8467 18.315 101.957 18.315C102.728 18.315 103.506 18.402 104.257 18.3017C106.538 17.9942 107.276 18.89 107.256 21.2564C107.19 27.079 107.309 27.2194 112.858 27.0991C115.376 27.0456 116.273 27.8678 115.93 30.3346C115.811 31.2103 115.91 32.1128 115.91 33.0019L115.917 32.9952Z" fill="#FEFEFE"/>
<path d="M1.85594 44.027L22.2159 14.667H4.13594V11.027H29.4759L9.11594 40.387H28.3959V44.027H1.85594ZM40.5072 44.027V14.667H30.9472V11.027H54.1472V14.667H44.5672V44.027H40.5072Z" fill="white"/>
<path d="M150.345 44.027V11.027H154.405V25.707H170.725V11.027H174.785V44.027H170.725V29.267H154.405V44.027H150.345ZM193.233 44.667C191.086 44.667 189.159 44.1936 187.453 43.247C185.746 42.3003 184.399 41.0136 183.413 39.387C182.426 37.747 181.932 35.9003 181.932 33.847C181.932 32.327 182.212 30.907 182.772 29.587C183.333 28.267 184.113 27.107 185.112 26.107C186.113 25.0936 187.273 24.307 188.593 23.747C189.913 23.187 191.326 22.907 192.833 22.907C194.966 22.907 196.833 23.347 198.433 24.227C200.046 25.107 201.299 26.3336 202.193 27.907C203.099 29.4803 203.553 31.307 203.553 33.387C203.553 33.5603 203.546 33.7003 203.533 33.807C203.519 33.9136 203.493 34.0536 203.452 34.227H185.852C185.852 35.6536 186.173 36.9136 186.813 38.007C187.466 39.1003 188.359 39.9603 189.493 40.587C190.639 41.2003 191.953 41.507 193.433 41.507C194.833 41.507 196.086 41.2203 197.193 40.647C198.299 40.0736 199.259 39.2203 200.073 38.087L202.913 39.567C201.939 41.1803 200.599 42.4336 198.893 43.327C197.199 44.2203 195.313 44.667 193.233 44.667ZM186.053 31.367H199.653C199.466 30.3136 199.053 29.3936 198.413 28.607C197.786 27.807 196.993 27.187 196.033 26.747C195.086 26.2936 194.039 26.067 192.892 26.067C191.693 26.067 190.606 26.287 189.633 26.727C188.673 27.1536 187.879 27.767 187.253 28.567C186.639 29.3536 186.239 30.287 186.053 31.367ZM218.062 44.667C216.156 44.667 214.429 44.2003 212.882 43.267C211.349 42.3203 210.129 41.027 209.222 39.387C208.329 37.747 207.882 35.8736 207.882 33.767C207.882 31.687 208.322 29.8336 209.202 28.207C210.082 26.567 211.289 25.2736 212.822 24.327C214.356 23.3803 216.102 22.907 218.062 22.907C219.796 22.907 221.376 23.2936 222.802 24.067C224.242 24.8403 225.356 25.9136 226.142 27.287V23.547H230.022V44.027H226.142V40.187C225.249 41.6003 224.102 42.7003 222.702 43.487C221.302 44.2736 219.756 44.667 218.062 44.667ZM219.102 41.327C220.502 41.327 221.736 41.007 222.802 40.367C223.882 39.7136 224.729 38.8203 225.342 37.687C225.956 36.5536 226.262 35.2536 226.262 33.787C226.262 32.3203 225.956 31.0203 225.342 29.887C224.729 28.7536 223.882 27.867 222.802 27.227C221.736 26.5736 220.502 26.247 219.102 26.247C217.716 26.247 216.482 26.5736 215.402 27.227C214.322 27.867 213.469 28.7536 212.842 29.887C212.229 31.0203 211.922 32.3203 211.922 33.787C211.922 35.2403 212.229 36.5403 212.842 37.687C213.469 38.8203 214.322 39.7136 215.402 40.367C216.482 41.007 217.716 41.327 219.102 41.327ZM237.771 44.027V9.62698H241.651V44.027H237.771ZM255.081 44.667C253.401 44.667 252.094 44.1136 251.161 43.007C250.228 41.887 249.761 40.3203 249.761 38.307V26.487H247.481V23.547H249.761V15.887H253.641V23.547H258.561V26.487H253.641V38.067C253.641 39.0803 253.841 39.8603 254.241 40.407C254.641 40.9536 255.214 41.227 255.961 41.227C256.708 41.227 257.374 41.007 257.961 40.567L258.941 43.667C258.421 43.9736 257.814 44.2136 257.121 44.387C256.441 44.5736 255.761 44.667 255.081 44.667ZM264.547 44.027V9.60698H268.427V26.187C269.054 25.2536 269.954 24.4736 271.127 23.847C272.3 23.2203 273.694 22.907 275.307 22.907C276.894 22.907 278.267 23.2403 279.427 23.907C280.587 24.5603 281.48 25.507 282.107 26.747C282.747 27.987 283.067 29.467 283.067 31.187V44.027H279.187V31.967C279.187 30.047 278.727 28.5736 277.807 27.547C276.887 26.507 275.594 25.987 273.927 25.987C272.78 25.987 271.794 26.2203 270.967 26.687C270.154 27.1536 269.527 27.7736 269.087 28.547C268.647 29.307 268.427 30.1403 268.427 31.047V44.027H264.547Z" fill="white"/>
<path d="M179.776 67.6757L187.92 55.9317H180.688V54.4757H190.824L182.68 66.2197H190.392V67.6757H179.776ZM196.962 67.9317C196.103 67.9317 195.333 67.7424 194.65 67.3637C193.967 66.9851 193.429 66.4704 193.034 65.8197C192.639 65.1637 192.442 64.4251 192.442 63.6037C192.442 62.9957 192.554 62.4277 192.778 61.8997C193.002 61.3717 193.314 60.9077 193.714 60.5077C194.114 60.1024 194.578 59.7877 195.106 59.5637C195.634 59.3397 196.199 59.2277 196.802 59.2277C197.655 59.2277 198.402 59.4037 199.042 59.7557C199.687 60.1077 200.189 60.5984 200.546 61.2277C200.909 61.8571 201.09 62.5877 201.09 63.4197C201.09 63.4891 201.087 63.5451 201.082 63.5877C201.077 63.6304 201.066 63.6864 201.05 63.7557H194.01C194.01 64.3264 194.138 64.8304 194.394 65.2677C194.655 65.7051 195.013 66.0491 195.466 66.2997C195.925 66.5451 196.45 66.6677 197.042 66.6677C197.602 66.6677 198.103 66.5531 198.546 66.3237C198.989 66.0944 199.373 65.7531 199.698 65.2997L200.834 65.8917C200.445 66.5371 199.909 67.0384 199.226 67.3957C198.549 67.7531 197.794 67.9317 196.962 67.9317ZM194.09 62.6117H199.53C199.455 62.1904 199.29 61.8224 199.034 61.5077C198.783 61.1877 198.466 60.9397 198.082 60.7637C197.703 60.5824 197.285 60.4917 196.826 60.4917C196.346 60.4917 195.911 60.5797 195.522 60.7557C195.138 60.9264 194.821 61.1717 194.57 61.4917C194.325 61.8064 194.165 62.1797 194.09 62.6117ZM203.469 67.6757V59.4837H205.021V60.6837C205.293 60.2091 205.64 59.8491 206.061 59.6037C206.482 59.3531 206.96 59.2277 207.493 59.2277C207.749 59.2277 208.008 59.2597 208.269 59.3237C208.536 59.3824 208.765 59.4624 208.957 59.5637L208.317 60.8757C208.152 60.7851 207.96 60.7131 207.741 60.6597C207.522 60.6064 207.317 60.5797 207.125 60.5797C206.768 60.5797 206.426 60.6731 206.101 60.8597C205.781 61.0411 205.52 61.2784 205.317 61.5717C205.12 61.8651 205.021 62.1797 205.021 62.5157V67.6757H203.469ZM214.566 67.9317C213.696 67.9317 212.912 67.7477 212.214 67.3797C211.52 67.0117 210.968 66.4997 210.558 65.8437C210.152 65.1877 209.949 64.4331 209.949 63.5797C209.949 62.7211 210.152 61.9664 210.558 61.3157C210.968 60.6597 211.52 60.1477 212.214 59.7797C212.912 59.4117 213.696 59.2277 214.566 59.2277C215.435 59.2277 216.216 59.4117 216.91 59.7797C217.608 60.1477 218.16 60.6597 218.566 61.3157C218.976 61.9664 219.182 62.7211 219.182 63.5797C219.182 64.4331 218.976 65.1877 218.566 65.8437C218.16 66.4997 217.608 67.0117 216.91 67.3797C216.216 67.7477 215.435 67.9317 214.566 67.9317ZM214.574 66.5797C215.144 66.5797 215.656 66.4517 216.11 66.1957C216.563 65.9397 216.92 65.5851 217.182 65.1317C217.443 64.6784 217.574 64.1611 217.574 63.5797C217.574 62.9931 217.443 62.4757 217.182 62.0277C216.92 61.5744 216.563 61.2197 216.11 60.9637C215.656 60.7077 215.144 60.5797 214.574 60.5797C213.998 60.5797 213.483 60.7077 213.03 60.9637C212.576 61.2197 212.219 61.5744 211.957 62.0277C211.696 62.4757 211.566 62.9931 211.566 63.5797C211.566 64.1611 211.696 64.6784 211.957 65.1317C212.219 65.5851 212.576 65.9397 213.03 66.1957C213.483 66.4517 213.998 66.5797 214.574 66.5797ZM227.767 67.6757V55.9317H223.943V54.4757H233.223V55.9317H229.391V67.6757H227.767ZM238.116 67.9317C237.246 67.9317 236.462 67.7477 235.764 67.3797C235.07 67.0117 234.518 66.4997 234.108 65.8437C233.702 65.1877 233.5 64.4331 233.5 63.5797C233.5 62.7211 233.702 61.9664 234.108 61.3157C234.518 60.6597 235.07 60.1477 235.764 59.7797C236.462 59.4117 237.246 59.2277 238.116 59.2277C238.985 59.2277 239.766 59.4117 240.46 59.7797C241.158 60.1477 241.71 60.6597 242.116 61.3157C242.526 61.9664 242.732 62.7211 242.732 63.5797C242.732 64.4331 242.526 65.1877 242.116 65.8437C241.71 66.4997 241.158 67.0117 240.46 67.3797C239.766 67.7477 238.985 67.9317 238.116 67.9317ZM238.124 66.5797C238.694 66.5797 239.206 66.4517 239.66 66.1957C240.113 65.9397 240.47 65.5851 240.732 65.1317C240.993 64.6784 241.124 64.1611 241.124 63.5797C241.124 62.9931 240.993 62.4757 240.732 62.0277C240.47 61.5744 240.113 61.2197 239.66 60.9637C239.206 60.7077 238.694 60.5797 238.124 60.5797C237.548 60.5797 237.033 60.7077 236.58 60.9637C236.126 61.2197 235.769 61.5744 235.508 62.0277C235.246 62.4757 235.116 62.9931 235.116 63.5797C235.116 64.1611 235.246 64.6784 235.508 65.1317C235.769 65.5851 236.126 65.9397 236.58 66.1957C237.033 66.4517 237.548 66.5797 238.124 66.5797ZM243.871 67.6757L247.343 63.4357L244.343 59.4837H246.135L248.319 62.3557L250.495 59.4837H252.287L249.287 63.4357L252.759 67.6757H250.911L248.319 64.4597L245.719 67.6757H243.871ZM254.546 67.6757V59.4837H256.098V67.6757H254.546ZM255.322 57.8277C255.146 57.8277 254.983 57.7851 254.834 57.6997C254.69 57.6091 254.572 57.4891 254.482 57.3397C254.396 57.1904 254.354 57.0277 254.354 56.8517C254.354 56.6704 254.396 56.5077 254.482 56.3637C254.572 56.2197 254.69 56.1051 254.834 56.0197C254.983 55.9291 255.146 55.8837 255.322 55.8837C255.503 55.8837 255.666 55.9291 255.81 56.0197C255.954 56.1051 256.068 56.2197 256.154 56.3637C256.244 56.5077 256.29 56.6704 256.29 56.8517C256.29 57.0277 256.244 57.1904 256.154 57.3397C256.068 57.4891 255.954 57.6091 255.81 57.6997C255.666 57.7851 255.503 57.8277 255.322 57.8277ZM263.022 67.9317C262.403 67.9317 261.822 67.8224 261.278 67.6037C260.739 67.3851 260.264 67.0784 259.854 66.6837C259.443 66.2891 259.12 65.8277 258.886 65.2997C258.656 64.7717 258.542 64.1984 258.542 63.5797C258.542 62.9717 258.654 62.4064 258.878 61.8837C259.102 61.3557 259.416 60.8944 259.822 60.4997C260.227 60.0997 260.702 59.7877 261.246 59.5637C261.79 59.3397 262.379 59.2277 263.014 59.2277C263.552 59.2277 264.064 59.3077 264.55 59.4677C265.035 59.6224 265.446 59.8331 265.782 60.0997L265.198 61.1477C264.659 60.7317 264 60.5237 263.222 60.5237C262.603 60.5237 262.062 60.6624 261.598 60.9397C261.134 61.2117 260.774 61.5797 260.518 62.0437C260.267 62.5077 260.142 63.0197 260.142 63.5797C260.142 64.1557 260.272 64.6757 260.534 65.1397C260.795 65.5984 261.158 65.9637 261.622 66.2357C262.091 66.5024 262.63 66.6357 263.238 66.6357C263.616 66.6357 263.974 66.5824 264.31 66.4757C264.646 66.3637 264.939 66.2091 265.19 66.0117L265.782 67.0597C265.44 67.3211 265.03 67.5317 264.55 67.6917C264.07 67.8517 263.56 67.9317 263.022 67.9317ZM267.944 67.6757V59.4837H269.496V67.6757H267.944ZM268.72 57.8277C268.544 57.8277 268.381 57.7851 268.232 57.6997C268.088 57.6091 267.97 57.4891 267.88 57.3397C267.794 57.1904 267.752 57.0277 267.752 56.8517C267.752 56.6704 267.794 56.5077 267.88 56.3637C267.97 56.2197 268.088 56.1051 268.232 56.0197C268.381 55.9291 268.544 55.8837 268.72 55.8837C268.901 55.8837 269.064 55.9291 269.208 56.0197C269.352 56.1051 269.466 56.2197 269.552 56.3637C269.642 56.5077 269.688 56.6704 269.688 56.8517C269.688 57.0277 269.642 57.1904 269.552 57.3397C269.466 57.4891 269.352 57.6091 269.208 57.6997C269.064 57.7851 268.901 57.8277 268.72 57.8277ZM274.876 67.9317C274.204 67.9317 273.681 67.7104 273.308 67.2677C272.934 66.8197 272.748 66.1931 272.748 65.3877V60.6597H271.836V59.4837H272.748V56.4197H274.3V59.4837H276.268V60.6597H274.3V65.2917C274.3 65.6971 274.38 66.0091 274.54 66.2277C274.7 66.4464 274.929 66.5557 275.228 66.5557C275.526 66.5557 275.793 66.4677 276.028 66.2917L276.42 67.5317C276.212 67.6544 275.969 67.7504 275.692 67.8197C275.42 67.8944 275.148 67.9317 274.876 67.9317ZM279.03 71.8357L281.23 67.2277L277.334 59.4837H279.102L282.126 65.6837L284.838 59.4837H286.606L280.79 71.8357H279.03Z" fill="white"/>
</svg>
