<svg width="54" height="54" viewBox="0 0 54 54" fill="none" xmlns="http://www.w3.org/2000/svg">
<path d="M2 18.984C2.17636 13.1165 5.96816 7.24903 13.1549 3.83973C20.4593 0.371896 28.2486 1.92291 34.0392 7.51241C39.7122 12.9995 41.5493 20.7106 38.0515 28.1438C36.2732 31.9043 36.1262 33.6894 40.0503 36.1915C44.0478 38.7521 46.9872 42.9077 50.5291 46.2438C52.2781 47.8973 52.6308 49.2142 50.6908 50.9847C49.0154 52.5064 47.8249 52.243 46.4434 50.692C44.9737 49.0678 43.3864 47.5754 41.8139 46.0536C36.6259 41.0787 33.4513 34.7137 23.0313 39.2935C13.2578 43.5808 2 32.3871 2 18.984ZM21.1941 34.143C28.7777 34.0259 34.5095 28.1292 34.2303 20.696C33.9657 13.2043 27.9841 7.73189 20.3564 7.99527C13.1255 8.22938 7.6877 13.9067 7.70239 21.1496C7.73179 28.7145 13.4783 34.2601 21.1941 34.143Z" fill="white" stroke="#B3B3B3" stroke-width="4"/>
</svg>
