<svg width="52" height="52" viewBox="0 0 52 52" fill="none" xmlns="http://www.w3.org/2000/svg">
<path d="M1 17.984C1.17636 12.1165 4.96816 6.24903 12.1549 2.83973C19.4593 -0.628104 27.2486 0.922908 33.0392 6.51241C38.7122 11.9995 40.5493 19.7106 37.0515 27.1438C35.2732 30.9043 35.1262 32.6894 39.0503 35.1915C43.0478 37.7521 45.9872 41.9077 49.5291 45.2438C51.2781 46.8973 51.6308 48.2142 49.6908 49.9847C48.0154 51.5064 46.8249 51.243 45.4434 49.692C43.9737 48.0678 42.3864 46.5754 40.8139 45.0536C35.6259 40.0787 32.4513 33.7137 22.0313 38.2935C12.2578 42.5808 1 31.3871 1 17.984ZM20.1941 33.143C27.7777 33.0259 33.5095 27.1292 33.2303 19.696C32.9657 12.2043 26.9841 6.73189 19.3564 6.99527C12.1255 7.22938 6.6877 12.9067 6.70239 20.1496C6.73179 27.7145 12.4783 33.2601 20.1941 33.143Z" fill="#0D99FF" stroke="#1B87FA"/>
</svg>
